<?xml version="1.0" encoding="UTF-8" standalone="no"?>
<svg width="300px" height="128px" viewBox="0 0 300 128" version="1.1" xmlns="http://www.w3.org/2000/svg" xmlns:xlink="http://www.w3.org/1999/xlink" xmlns:sketch="http://www.bohemiancoding.com/sketch/ns">
    <!-- Generator: Sketch 3.0.4 (8054) - http://www.bohemiancoding.com/sketch -->
    <title>Ora.fm@2x</title>
    <desc>Created with Sketch.</desc>
    <defs></defs>
    <g id="Page-2" stroke="none" stroke-width="1" fill="none" fill-rule="evenodd" sketch:type="MSPage">
        <g id="Ora.fm" sketch:type="MSArtboardGroup">
            <g id="Ora-A5-4" sketch:type="MSLayerGroup" stroke="#FFFFFF" stroke-width="10">
                <path d="M64,128 C99.346224,128 128,99.346224 128,64 C128,28.653776 99.346224,0 64,0 C28.653776,0 0,28.653776 0,64 C0,99.346224 28.653776,128 64,128 Z" id="Oval-1" sketch:type="MSShapeGroup"></path>
                <path d="M198.784641,123.414215 C226.286823,123.307301 243.749184,112.582733 245.218651,96.5331154 C242.544502,101.21516 232.083488,102.021862 230.411781,95.1905899 C228.740074,88.3593181 224.321591,58.0838718 196.544058,57.5199684 C176.655728,57.4121319 162.878738,72.491559 162.878738,90.9513893 C162.878738,109.336006 182.018247,123.414215 198.784641,123.414215 Z" id="Path-2" sketch:type="MSShapeGroup"></path>
                <path d="M142.985862,122.684643 C142.985862,122.684643 129.524837,46.385964 182.764546,39.3500466" id="Path-54" sketch:type="MSShapeGroup"></path>
            </g>
            <text id=".fm-2" opacity="0.6" sketch:type="MSTextLayer" font-family="Montserrat" font-size="36" font-weight="bold" fill="#FFFFFF">
                <tspan x="242" y="119">.fm</tspan>
            </text>
        </g>
    </g>
</svg>