<?xml version="1.0" encoding="utf-8"?>
<!-- Generator: Adobe Illustrator 17.1.0, SVG Export Plug-In . SVG Version: 6.00 Build 0)  -->
<!DOCTYPE svg PUBLIC "-//W3C//DTD SVG 1.1//EN" "http://www.w3.org/Graphics/SVG/1.1/DTD/svg11.dtd">
<svg version="1.1" id="Layer_1" xmlns="http://www.w3.org/2000/svg" xmlns:xlink="http://www.w3.org/1999/xlink" x="0px" y="0px"
	 viewBox="101.2 280.3 409.6 231.3" enable-background="new 101.2 280.3 409.6 231.3" xml:space="preserve">
<g id="Layer_1_1_">
</g>
<g id="Layer_2">
	<g>
		<g>
			<path fill="#FFFFFF" d="M121,372.7c-0.9,0-1.6,0.7-1.7,1.7c0,0-4,36.8-4,36.8l4,36c0.1,1,0.8,1.7,1.7,1.7c0.9,0,1.6-0.7,1.7-1.7
				l4.6-36l-4.6-36.8C122.5,373.3,121.8,372.7,121,372.7z"/>
			<path fill="#FFFFFF" d="M105.8,386.7c-0.9,0-1.5,0.7-1.6,1.6l-3,22.7l3,22.4c0.1,0.9,0.8,1.6,1.6,1.6c0.8,0,1.5-0.7,1.6-1.6
				l3.5-22.4l-3.5-22.8C107.3,387.4,106.7,386.7,105.8,386.7z"/>
			<path fill="#FFFFFF" d="M137.1,365.4c-1.1,0-1.9,0.8-2.1,2c0,0-3.8,43.6-3.8,43.6l3.8,42.1c0.1,1.2,1,2,2.1,2c1.1,0,1.9-0.8,2-2
				l4.3-42.1l-4.3-43.6C139,366.3,138.1,365.4,137.1,365.4z"/>
			<path fill="#FFFFFF" d="M153.3,363.9c-1.3,0-2.3,1-2.4,2.4l-3.6,44.8l3.6,43.4c0.1,1.3,1.1,2.4,2.4,2.4c1.3,0,2.3-1,2.4-2.4
				l4.1-43.4l-4.1-44.9C155.6,364.9,154.5,363.9,153.3,363.9z"/>
			<polygon fill="#FFFFFF" points="172.4,454.8 172.4,454.8 172.4,454.9 			"/>
			<path fill="#FFFFFF" d="M172.4,369.5c-0.1-1.5-1.3-2.7-2.8-2.7c-1.5,0-2.7,1.2-2.8,2.7l-3.4,41.6l3.4,43.7
				c0.1,1.5,1.3,2.7,2.8,2.7c1.5,0,2.6-1.2,2.8-2.7l3.9-43.7L172.4,369.5z"/>
			<path fill="#FFFFFF" d="M186.1,340.4c-1.7,0-3,1.3-3.1,3.1c0,0-3.2,67.7-3.2,67.7l3.2,43.7c0.1,1.7,1.4,3.1,3.1,3.1
				c1.6,0,3-1.3,3.1-3.1v0l3.6-43.7l-3.6-67.7C189.1,341.7,187.8,340.4,186.1,340.4z"/>
			<path fill="#FFFFFF" d="M202.5,324.8c-1.9,0-3.4,1.5-3.5,3.4c0,0-3,83.2-3,83.2l3,43.5c0.1,1.9,1.6,3.4,3.5,3.4
				c1.8,0,3.4-1.5,3.4-3.4l0,0l3.4-43.5l-3.4-83.2C205.9,326.3,204.3,324.8,202.5,324.8z"/>
			<path fill="#FFFFFF" d="M219.5,317.3c-2.1,0-3.7,1.7-3.8,3.8c0,0-2.8,90.1-2.8,90.1l2.8,43c0.1,2.1,1.7,3.8,3.8,3.8
				c2,0,3.7-1.7,3.8-3.8l0,0l3.1-43l-3.1-90.1C223.2,318.9,221.6,317.3,219.5,317.3z"/>
			<path fill="#FFFFFF" d="M240.5,318c-0.1-2.3-1.9-4.1-4.1-4.1c-2.3,0-4.1,1.8-4.2,4.1l-2.6,93.1l2.6,42.8c0.1,2.3,1.9,4.1,4.1,4.1
				c2.3,0,4.1-1.8,4.1-4.1l2.9-42.7L240.5,318z"/>
			<polygon fill="#FFFFFF" points="240.5,453.9 240.5,453.9 240.5,453.9 			"/>
			<path fill="#FFFFFF" d="M253.4,315.9c-2.5,0-4.4,2-4.5,4.5l-2.4,90.8l2.4,42.3c0.1,2.5,2,4.5,4.5,4.5c2.5,0,4.4-2,4.5-4.5v0
				l2.7-42.4l-2.7-90.8C257.8,317.9,255.9,315.9,253.4,315.9z"/>
			<path fill="#FFFFFF" d="M270.6,318.9c-2.7,0-4.8,2.1-4.8,4.8l-2.2,87.4l2.2,42.1c0,2.7,2.2,4.8,4.8,4.8c2.7,0,4.8-2.1,4.8-4.8v0
				l2.4-42.1l-2.4-87.5C275.3,321,273.2,318.9,270.6,318.9z"/>
			<path fill="#FFFFFF" d="M290.7,302.8c-0.8-0.6-1.8-0.9-2.9-0.9c-1,0-2,0.3-2.8,0.8c-1.4,0.9-2.4,2.5-2.4,4.3l0,1l-1.9,103
				c0,0.1,2,41.8,2,41.8c0,0.1,0,0.1,0,0.2c0.1,1.2,0.5,2.2,1.2,3.1c1,1.1,2.4,1.9,4,1.9c1.4,0,2.7-0.6,3.6-1.5
				c0.9-0.9,1.5-2.2,1.6-3.7l0.2-4.1l2-37.6L293,307.1C293,305.3,292.1,303.7,290.7,302.8z"/>
			<polygon fill="#FFFFFF" points="293,453 293,453 293,453 293,453 293,452.9 293,452.9 293,453 			"/>
			<path fill="#FFFFFF" d="M307.9,293c-0.8-0.5-1.8-0.8-2.8-0.8c-1.3,0-2.5,0.5-3.5,1.3c-1.2,1-2,2.6-2.1,4.3l0,0.6l-2.3,112.9
				l1.2,20.9l1.1,20.3c0,3,2.5,5.5,5.6,5.5c3,0,5.5-2.5,5.5-5.5v0v0l2.5-41.2v0l-2.5-113.5C310.5,295.7,309.5,293.9,307.9,293z"/>
			<path fill="#FFFFFF" d="M460.4,357.5c-6.9,0-13.5,1.4-19.5,3.9c-4-45.4-42.1-81-88.5-81c-11.4,0-22.4,2.2-32.2,6
				c-3.8,1.5-4.8,3-4.8,5.9c0,0,0,159.9,0,159.9c0,3.1,2.4,5.5,5.4,5.8c0.1,0,139.7,0,139.7,0c27.8,0,50.4-22.3,50.4-50.1
				C510.8,380,488.2,357.5,460.4,357.5z"/>
		</g>
		<path fill="#FFFFFF" d="M141.4,488.3c-5.9-1.4-7.5-2.1-7.5-4.5c0-1.6,1.3-3.4,5.3-3.4c3.4,0,6.1,1.4,8.5,3.8l5.4-5.2
			c-3.5-3.7-7.8-5.9-13.6-5.9c-7.3,0-13.3,4.2-13.3,10.9c0,7.3,4.8,9.5,11.7,11.1c7,1.6,8.3,2.7,8.3,5.1c0,2.8-2.1,4-6.5,4
			c-3.6,0-6.9-1.2-9.5-4.3l-5.4,4.8c2.8,4.2,8.3,6.8,14.5,6.8c10.2,0,14.6-4.8,14.6-11.9C153.9,491.7,147.3,489.7,141.4,488.3z
			 M175.7,473.2c-10.2,0-16.2,7.9-16.2,19.2c0,11.3,6,19.2,16.2,19.2c10.2,0,16.2-7.9,16.2-19.2
			C191.9,481.1,185.9,473.2,175.7,473.2z M175.7,504.3c-6,0-8.5-5.2-8.5-11.8c0-6.7,2.5-11.8,8.5-11.8c6,0,8.5,5.2,8.5,11.8
			C184.2,499.1,181.7,504.3,175.7,504.3z M221.9,494.7c0,6-2.9,9.6-7.7,9.6c-4.7,0-7.6-3.8-7.6-9.7v-20.8h-7.4v20.9
			c0,10.9,6.1,16.9,15.1,16.9c9.5,0,15.1-6.2,15.1-17v-20.8h-7.4L221.9,494.7L221.9,494.7z M261.5,489.6c0,2.1,0.1,6.8,0.1,8.1
			c-0.5-1-1.7-2.8-2.6-4.2l-13.2-19.7h-7.1v37.3h7.3v-16.4c0-2.1-0.1-6.8-0.1-8.1c0.5,1,1.7,2.8,2.6,4.2l13.7,20.3h6.7v-37.3h-7.3
			L261.5,489.6L261.5,489.6z M290.1,473.8h-11.6v37.3h11.1c9.6,0,19.1-5.5,19.1-18.6C308.6,478.8,300.7,473.8,290.1,473.8z
			 M289.6,503.8h-3.7v-22.8h3.9c7.9,0,11.1,3.8,11.1,11.4C301,499.3,297.4,503.8,289.6,503.8z M331.7,480.6c3.4,0,5.5,1.5,6.8,4
			l6.9-3.2c-2.3-4.8-6.6-8.2-13.6-8.2c-9.7,0-16.5,7.9-16.5,19.2c0,11.8,6.5,19.2,16.3,19.2c6.8,0,11.2-3.1,13.8-8.4l-6.3-3.7
			c-2,3.3-3.9,4.7-7.3,4.7c-5.6,0-8.8-5.1-8.8-11.8C322.9,485.5,326.1,480.6,331.7,480.6z M359.3,473.8h-7.5v37.3h22.4v-7.3h-14.9
			V473.8z M393.9,473.2c-10.2,0-16.2,7.9-16.2,19.2c0,11.3,6,19.2,16.2,19.2c10.2,0,16.2-7.9,16.2-19.2
			C410,481.1,404,473.2,393.9,473.2z M393.9,504.3c-6,0-8.5-5.2-8.5-11.8c0-6.7,2.5-11.8,8.5-11.8c6,0,8.5,5.2,8.5,11.8
			C402.4,499.1,399.9,504.3,393.9,504.3z M440.1,494.7c0,6-2.9,9.6-7.7,9.6c-4.7,0-7.6-3.8-7.6-9.7v-20.8h-7.5v20.9
			c0,10.9,6.1,16.9,15.1,16.9c9.5,0,15.1-6.2,15.1-17v-20.8h-7.5L440.1,494.7L440.1,494.7z M468.5,473.8h-11.7v37.3H468
			c9.6,0,19.1-5.5,19.1-18.6C487,478.8,479.2,473.8,468.5,473.8z M468,503.8h-3.7v-22.8h3.9c7.9,0,11.1,3.8,11.1,11.4
			C479.4,499.3,475.8,503.8,468,503.8z"/>
	</g>
</g>
</svg>
