<?xml version="1.0" encoding="utf-8"?>
<!-- Generator: Adobe Illustrator 17.1.0, SVG Export Plug-In . SVG Version: 6.00 Build 0)  -->
<!DOCTYPE svg PUBLIC "-//W3C//DTD SVG 1.1//EN" "http://www.w3.org/Graphics/SVG/1.1/DTD/svg11.dtd">
<svg version="1.1" id="YouTube_Logo" xmlns="http://www.w3.org/2000/svg" xmlns:xlink="http://www.w3.org/1999/xlink" x="0px"
	 y="0px" viewBox="107.8 313.3 396.5 163.1" enable-background="new 107.8 313.3 396.5 163.1" xml:space="preserve">
<g id="You">
	<path id="u_2_" fill="#FFFFFF" d="M255.8,447.2h-15v-8.7c-5.7,6.5-10.5,9.8-15.8,9.8c-4.6,0-7.8-2.2-9.4-6.1
		c-1-2.4-1.7-6.1-1.7-11.6v-63.3h15v59.4c0,3.4,0,4.7,0,5.5c0.4,2.2,1.3,3,3.2,3c2.9,0,5.5-2.5,8.7-7v-60.9h15V447.2z"/>
	<path id="o_2_" fill="#FFFFFF" d="M202.8,393.4c0-8.5-1.7-15-4.7-19c-4-5.5-10.3-7.7-16.6-7.7c-7.2,0-12.6,2.2-16.6,7.7
		c-3.1,4-4.7,10.5-4.7,19.1l0,28.4c0,8.5,1.5,14.4,4.6,18.4c4,5.5,10.5,8.3,16.8,8.3c6.3,0,12.9-2.9,16.9-8.3c3-4,4.4-9.9,4.4-18.4
		V393.4z M187.8,423.4c0.8,7.9-1.7,11.8-6.3,11.8c-4.7,0-7.1-3.9-6.3-11.8v-31.7c-0.8-7.9,1.7-11.6,6.3-11.6s7.1,3.7,6.3,11.6
		L187.8,423.4z"/>
	<path id="y_2_" fill="#FFFFFF" d="M143.5,403.6v43.5h-15.8v-43.5c0,0-16.4-53.4-19.8-63.3h16.6l11.1,41.7l11.1-41.7h16.6
		L143.5,403.6z"/>
</g>
<g id="Tube">
	<g>
		<path fill="#FFFFFF" d="M410.5,380c-2.4,0-5.1,1.2-7.5,3.6l0,48c2.4,2.4,5.1,3.6,7.5,3.6c4.1,0,6-3,6-10.9v-34
			C416.5,382.3,414.6,380,410.5,380z"/>
		<path fill="#FFFFFF" d="M469.5,389.5c0-7.3-1.9-9.5-6.6-9.5c-4.8,0-6.8,2-6.8,9.4v8.8l13.5,0V389.5z"/>
		<path fill="#FFFFFF" d="M502,349c0,0-2.3-16.2-9.4-23.4c-9-9.4-19.1-9.4-23.7-10c-33.1-2.4-82.7-2.4-82.7-2.4h-0.1
			c0,0-49.6,0-82.7,2.4c-4.6,0.5-14.7,0.6-23.7,10c-7.1,7.1-9.4,23.4-9.4,23.4S268,368,268,387v17.8c0,19,2.4,38.1,2.4,38.1
			s2.3,16.2,9.4,23.4c9,9.4,20.8,9.1,26.1,10.1c18.9,1.8,80.3,2.4,80.3,2.4s49.7-0.1,82.7-2.5c4.6-0.5,14.7-0.6,23.7-10
			c7.1-7.1,9.4-23.4,9.4-23.4s2.4-19,2.4-38.1V387C504.4,368,502,349,502,349z M319.9,447.2h-15.8v-91h-16.6v-15l49.9,0v15h-17.4
			V447.2z M376.9,447.2h-15v-8.7c-5.7,6.5-10.5,9.8-15.8,9.8c-4.6,0-7.8-2.2-9.4-6.1c-1-2.4-1.7-6.1-1.7-11.6V368h15v58.6
			c0,3.4,0,4.7,0,5.5c0.4,2.2,1.3,3,3.2,3c2.9,0,5.5-2.5,8.7-7V368h15V447.2z M431.5,423.4c0,7.3-0.6,12.5-1.6,15.8
			c-1.9,5.9-6.1,8.9-11.8,8.9c-5.1,0-10.3-3.1-15.1-9l0,8h-14.2V341.1H403l0,34.6c4.6-5.7,9.9-8.9,15.1-8.9c5.7,0,9.5,3.3,11.5,9.2
			c1,3.2,1.9,8.3,1.9,15.8V423.4z M463,435.2c3.5,0,5.6-1.9,6.4-5.7c0.1-0.8,0.1-4.2,0.1-9.9h15v2.2c0,4.6-0.4,7.9-0.5,9.3
			c-0.5,3.2-1.6,6.1-3.4,8.6c-4,5.7-9.8,8.6-17.3,8.6c-7.5,0-13.2-2.7-17.3-8.1c-3-4-5-9.8-5-18.2v-27.7c0-8.5,1.8-15,4.8-19
			c4.1-5.4,9.8-8.3,17.2-8.3c7.2,0,12.9,2.9,16.9,8.3c3,4,4.7,10.2,4.7,18.6l0,16.2h-28.5v14.2C456,431.5,458.1,435.2,463,435.2z"/>
	</g>
</g>
</svg>
